REM DIRINDEX 1\2\6,1\2\7,1\2\8,1\2\9,1\3\10,1\3\11,1\4\12,1\4\13,1\4\14,1\5\15,1\5\16,1\5\17
REM DIRNAME folder01,folder02,folder03,folder04,folder05,folder06,folder07,folder08,folder09,folder10,folder11,folder12,folder13,folder14,folder15,folder16,folder17
TITLE ""
FILE "1900_2_sec16_1558_1576.mp3" MP3
  TRACK 01 AUDIO
    TITLE "0:"
    INDEX 01 00:00:00
  TRACK 02 AUDIO
    TITLE "13:cjc020_5266"
    INDEX 01 00:00:19
  TRACK 03 AUDIO
    TITLE "0:"
    INDEX 01 00:01:40
  TRACK 04 AUDIO
    TITLE "14:cjc020_5267"
    INDEX 01 00:01:46
  TRACK 05 AUDIO
    TITLE "0:"
    INDEX 01 00:04:05
  TRACK 06 AUDIO
    TITLE "13:cjc020_5268"
    INDEX 01 00:04:60
  TRACK 07 AUDIO
    TITLE "0:"
    INDEX 01 00:06:16
  TRACK 08 AUDIO
    TITLE "14:cjc020_5269"
    INDEX 01 00:06:20
  TRACK 09 AUDIO
    TITLE "0:"
    INDEX 01 00:11:31
  TRACK 10 AUDIO
    TITLE "13:cjc020_5270"
    INDEX 01 00:12:12
  TRACK 11 AUDIO
    TITLE "0:"
    INDEX 01 00:13:41
  TRACK 12 AUDIO
    TITLE "14:cjc020_5271"
    INDEX 01 00:13:47
  TRACK 13 AUDIO
    TITLE "0:"
    INDEX 01 00:17:65
  TRACK 14 AUDIO
    TITLE "13:cjc020_5272"
    INDEX 01 00:18:42
  TRACK 15 AUDIO
    TITLE "0:"
    INDEX 01 00:19:44
  TRACK 16 AUDIO
    TITLE "14:cjc020_5273"
    INDEX 01 00:19:50
  TRACK 17 AUDIO
    TITLE "0:"
    INDEX 01 00:20:61
  TRACK 18 AUDIO
    TITLE "13:cjc020_5274"
    INDEX 01 00:21:39
  TRACK 19 AUDIO
    TITLE "0:"
    INDEX 01 00:22:38
  TRACK 20 AUDIO
    TITLE "14:cjc020_5275"
    INDEX 01 00:22:40
  TRACK 21 AUDIO
    TITLE "0:"
    INDEX 01 00:25:60
  TRACK 22 AUDIO
    TITLE "13:cjc020_5276"
    INDEX 01 00:26:40
  TRACK 23 AUDIO
    TITLE "0:"
    INDEX 01 00:28:02
  TRACK 24 AUDIO
    TITLE "14:cjc020_5277"
    INDEX 01 00:28:06
  TRACK 25 AUDIO
    TITLE "0:"
    INDEX 01 00:30:50
  TRACK 26 AUDIO
    TITLE "13:cjc020_5278"
    INDEX 01 00:31:27
  TRACK 27 AUDIO
    TITLE "0:"
    INDEX 01 00:32:37
  TRACK 28 AUDIO
    TITLE "14:cjc020_5279"
    INDEX 01 00:32:43
  TRACK 29 AUDIO
    TITLE "0:"
    INDEX 01 00:34:55
  TRACK 30 AUDIO
    TITLE "13:cjc020_5280"
    INDEX 01 00:35:37
  TRACK 31 AUDIO
    TITLE "0:"
    INDEX 01 00:36:50
  TRACK 32 AUDIO
    TITLE "14:cjc020_5281"
    INDEX 01 00:36:52
  TRACK 33 AUDIO
    TITLE "0:"
    INDEX 01 00:38:53
  TRACK 34 AUDIO
    TITLE "13:cjc020_5282"
    INDEX 01 00:39:33
  TRACK 35 AUDIO
    TITLE "0:"
    INDEX 01 00:40:56
  TRACK 36 AUDIO
    TITLE "14:cjc020_5283"
    INDEX 01 00:40:58
  TRACK 37 AUDIO
    TITLE "0:"
    INDEX 01 00:43:40
  TRACK 38 AUDIO
    TITLE "13:cjc020_5284"
    INDEX 01 00:44:20
  TRACK 39 AUDIO
    TITLE "0:"
    INDEX 01 00:45:47
  TRACK 40 AUDIO
    TITLE "14:cjc020_5285"
    INDEX 01 00:45:49
  TRACK 41 AUDIO
    TITLE "0:"
    INDEX 01 00:47:72
  TRACK 42 AUDIO
    TITLE "13:cjc020_5286"
    INDEX 01 00:48:55
  TRACK 43 AUDIO
    TITLE "0:"
    INDEX 01 00:50:03
  TRACK 44 AUDIO
    TITLE "14:cjc020_5287"
    INDEX 01 00:50:07
  TRACK 45 AUDIO
    TITLE "0:"
    INDEX 01 00:51:46
  TRACK 46 AUDIO
    TITLE "13:cjc020_5288"
    INDEX 01 00:52:24
  TRACK 47 AUDIO
    TITLE "0:"
    INDEX 01 00:53:53
  TRACK 48 AUDIO
    TITLE "14:cjc020_5289"
    INDEX 01 00:53:55
  TRACK 49 AUDIO
    TITLE "0:"
    INDEX 01 00:54:66
  TRACK 50 AUDIO
    TITLE "13:cjc020_5290"
    INDEX 01 00:55:51
  TRACK 51 AUDIO
    TITLE "0:"
    INDEX 01 00:56:43
  TRACK 52 AUDIO
    TITLE "14:cjc020_5291"
    INDEX 01 00:56:51
  TRACK 53 AUDIO
    TITLE "0:"
    INDEX 01 00:58:50
  TRACK 54 AUDIO
    TITLE "13:cjc020_5292"
    INDEX 01 00:59:26
  TRACK 55 AUDIO
    TITLE "0:"
    INDEX 01 01:00:43
  TRACK 56 AUDIO
    TITLE "14:cjc020_5293"
    INDEX 01 01:00:47
  TRACK 57 AUDIO
    TITLE "0:"
    INDEX 01 01:03:12
  TRACK 58 AUDIO
    TITLE "13:cjc020_5294"
    INDEX 01 01:03:67
  TRACK 59 AUDIO
    TITLE "0:"
    INDEX 01 01:05:07
  TRACK 60 AUDIO
    TITLE "14:cjc020_5295"
    INDEX 01 01:05:09
  TRACK 61 AUDIO
    TITLE "0:"
    INDEX 01 01:07:35
  TRACK 62 AUDIO
    TITLE "12:cjc020_5296"
    INDEX 01 01:09:05
  TRACK 63 AUDIO
    TITLE "0:"
    INDEX 01 01:10:49
  TRACK 64 AUDIO
    TITLE "13:cjc020_5297"
    INDEX 01 01:11:51
  TRACK 65 AUDIO
    TITLE "0:"
    INDEX 01 01:12:60
  TRACK 66 AUDIO
    TITLE "14:cjc020_5298"
    INDEX 01 01:12:66
  TRACK 67 AUDIO
    TITLE "0:"
    INDEX 01 01:15:31
  TRACK 68 AUDIO
    TITLE "13:cjc020_5299"
    INDEX 01 01:16:07
  TRACK 69 AUDIO
    TITLE "0:"
    INDEX 01 01:17:16
  TRACK 70 AUDIO
    TITLE "14:cjc020_5300"
    INDEX 01 01:17:22
  TRACK 71 AUDIO
    TITLE "0:"
    INDEX 01 01:19:52
  TRACK 72 AUDIO
    TITLE "13:cjc020_5301"
    INDEX 01 01:20:32
  TRACK 73 AUDIO
    TITLE "0:"
    INDEX 01 01:21:39
  TRACK 74 AUDIO
    TITLE "14:cjc020_5302"
    INDEX 01 01:21:41
  TRACK 75 AUDIO
    TITLE "0:"
    INDEX 01 01:22:60
  TRACK 76 AUDIO
    TITLE "13:cjc020_5303"
    INDEX 01 01:23:42
  TRACK 77 AUDIO
    TITLE "0:"
    INDEX 01 01:24:61
  TRACK 78 AUDIO
    TITLE "14:cjc020_5304"
    INDEX 01 01:24:65
  TRACK 79 AUDIO
    TITLE "0:"
    INDEX 01 01:27:03
